<svg width="228" height="174" viewBox="0 0 228 174" fill="none" xmlns="http://www.w3.org/2000/svg">
<g clip-path="url(#clip0_339_26)">
<path d="M98.9448 42.9362H91.4988V61.188C91.4988 63.4581 91.0448 64.8202 89.7735 64.8202C88.4115 64.8202 88.0482 63.4581 88.0482 61.188V12.6981C88.0482 10.428 88.4115 9.06595 89.7735 9.06595C91.0448 9.06595 91.4988 10.428 91.4988 12.6981V29.7695H98.9448V14.2418C98.9448 6.52341 95.9483 2.6188 89.7735 2.6188C83.5988 2.6188 80.0574 6.52341 80.0574 14.2418V59.6443C80.0574 67.3627 83.5988 71.2673 89.7735 71.2673C95.9483 71.2673 98.9448 67.3627 98.9448 59.6443V42.9362ZM118.089 70.5409H126.08V3.34524H118.089V33.1293H114.003V3.34524H106.012V70.5409H114.003V40.0304H118.089V70.5409ZM137.833 3.34524L132.112 70.5409H139.558L140.466 53.4696H144.28L145.188 70.5409H152.997L147.276 3.34524H137.833ZM141.465 33.6741L142.191 19.5993H142.373L143.19 33.6741L143.917 46.75H140.829L141.465 33.6741ZM167.42 3.34524H159.066V70.5409H165.967V30.6775H166.148L171.506 70.5409H178.589V3.34524H171.687V37.5787H171.506L167.42 3.34524ZM197.165 61.0972C197.165 63.5489 196.62 64.8202 195.348 64.8202C194.077 64.8202 193.623 63.4581 193.623 61.0972V12.6981C193.623 10.428 193.986 9.06595 195.348 9.06595C196.62 9.06595 197.074 10.428 197.074 12.6981V29.7695H204.52V14.2418C204.52 6.52341 201.523 2.6188 195.348 2.6188C189.174 2.6188 185.632 6.52341 185.632 14.2418V60.0983C185.632 67.2719 188.175 71.2673 193.532 71.2673C196.529 71.2673 198.89 69.3604 199.344 66.6363C199.889 69.8145 202.068 70.7225 204.52 70.7225V36.1258H195.439V43.2086H197.165V61.0972ZM211.676 70.5409H227.112V63.8213H219.666V39.9396H226.295V33.2201H219.666V10.0648H227.112V3.34524H211.676V70.5409Z" fill="#FE5200"/>
<path d="M2.656 144.482H10.6468V77.2866H2.656V144.482ZM26.2305 77.2866H17.8765V144.482H24.7776V104.619H24.9593L30.3168 144.482H37.3995V77.2866H30.4984V111.52H30.3168L26.2305 77.2866ZM63.8756 88.1831C63.8756 81.0096 60.5158 77.2866 54.8859 77.2866H44.6249V144.482H54.8859C60.5158 144.482 63.8756 140.759 63.8756 133.586V88.1831ZM52.6157 137.944V83.8245H54.0686C55.4307 83.8245 55.8847 85.0958 55.8847 87.5475V134.221C55.8847 136.673 55.4307 137.944 54.0686 137.944H52.6157ZM70.8392 77.2866V133.586C70.8392 141.304 74.3806 145.209 80.5553 145.209C86.73 145.209 90.3622 141.304 90.3622 133.586V77.2866H82.3714V135.038C82.3714 137.399 81.9174 138.671 80.5553 138.671C79.284 138.671 78.83 137.399 78.83 135.038V77.2866H70.8392ZM115.844 88.1831C115.844 80.5555 112.847 76.5601 106.672 76.5601C100.588 76.5601 97.047 80.5555 97.047 88.1831V98.9889C97.047 105.073 98.7723 107.979 101.678 111.429L105.764 116.06C107.671 118.603 108.034 119.511 108.034 123.143V135.038C108.034 137.399 107.58 138.671 106.309 138.671C105.038 138.671 104.584 137.399 104.584 135.038V117.604H97.1378V133.495C97.1378 141.304 100.225 145.209 106.309 145.209C112.484 145.209 115.844 141.304 115.844 133.495V123.234C115.844 116.696 114.572 114.335 111.303 110.249L107.49 105.527C105.492 102.984 104.947 101.804 104.947 98.1717V86.6395C104.947 84.3693 105.401 83.0073 106.672 83.0073C107.944 83.0073 108.398 84.3693 108.398 86.6395V103.348H115.844V88.1831ZM139.383 84.0061V77.2866H120.949V84.0061H126.216V144.482H134.207V84.0061H139.383ZM156.935 137.309C156.935 139.579 157.117 142.394 157.752 144.482H165.834C165.107 142.121 164.926 139.67 164.926 137.309V118.784C164.926 115.061 163.745 112.973 160.658 111.157C163.745 109.341 164.835 106.526 164.835 102.712V88.1831C164.835 81.0096 161.566 77.2866 155.845 77.2866H145.766V144.482H153.757V113.972H155.119C156.481 113.972 156.935 115.243 156.935 117.695V137.309ZM156.844 103.711C156.844 106.253 156.39 107.525 155.119 107.525H153.757V83.8245H155.119C156.39 83.8245 156.844 85.0958 156.844 87.5475V103.711ZM171.982 144.482H179.973V77.2866H171.982V144.482ZM187.203 144.482H202.64V137.763H195.194V113.881H201.822V107.161H195.194V84.0061H202.64V77.2866H187.203V144.482ZM227.505 88.1831C227.505 80.5555 224.509 76.5601 218.334 76.5601C212.25 76.5601 208.709 80.5555 208.709 88.1831V98.9889C208.709 105.073 210.434 107.979 213.34 111.429L217.426 116.06C219.333 118.603 219.696 119.511 219.696 123.143V135.038C219.696 137.399 219.242 138.671 217.971 138.671C216.7 138.671 216.246 137.399 216.246 135.038V117.604H208.8V133.495C208.8 141.304 211.887 145.209 217.971 145.209C224.146 145.209 227.505 141.304 227.505 133.495V123.234C227.505 116.696 226.234 114.335 222.965 110.249L219.151 105.527C217.154 102.984 216.609 101.804 216.609 98.1717V86.6395C216.609 84.3693 217.063 83.0073 218.334 83.0073C219.605 83.0073 220.059 84.3693 220.059 86.6395V103.348H227.505V88.1831Z" fill="#FE5200"/>
<path d="M5.1139 50.4766L1.91748 70.3173H8.56147L11.8492 50.4766H5.1139Z" fill="#FE5200"/>
<path d="M18.7672 50.4766L15.5708 70.3173H22.2148L25.5025 50.4766H18.7672Z" fill="#FE5200"/>
<path d="M32.1461 50.4766L28.9497 70.3173H35.5937L38.8815 50.4766H32.1461Z" fill="#FE5200"/>
<path d="M8.6524 29.1064L6.4834 42.1889H13.1959L15.2736 29.1064H8.6524Z" fill="#FE5200"/>
<path d="M22.3067 29.1064L20.1377 42.1889H26.8502L28.9279 29.1064H22.3067Z" fill="#FE5200"/>
<path d="M35.6846 29.1064L33.5156 42.1889H40.2281L42.3058 29.1064H35.6846Z" fill="#FE5200"/>
<path d="M19.3607 3.94601H12.6939L9.9541 20.7501H16.6209L19.3607 3.94601Z" fill="#FE5200"/>
<path d="M33.0595 3.94601H26.3926L23.6528 20.7501H30.3197L33.0595 3.94601Z" fill="#FE5200"/>
<path d="M46.4384 3.94592H39.7715L37.0317 20.75H43.6986L46.4384 3.94592Z" fill="#FE5200"/>
<path d="M6.28231 166.27C8.74841 166.27 10.7246 164.751 10.7246 162.073C10.7246 160.08 9.40168 158.986 7.22955 158.986H2.86897L1.10513 169.014H4.22451L4.69813 166.27H6.28231ZM5.51472 161.616H6.62528C7.34388 161.616 7.65418 161.942 7.65418 162.465C7.65418 163.2 7.16423 163.641 6.33131 163.641H5.17175L5.51472 161.616ZM15.7447 166.417C14.7648 166.417 14.1115 165.682 14.1115 164.506C14.1115 162.645 15.0587 161.583 16.251 161.583C17.2309 161.583 17.8841 162.318 17.8841 163.494C17.8841 165.356 16.9369 166.417 15.7447 166.417ZM15.614 169.177C18.7007 169.177 21.0688 166.744 21.0688 163.396C21.0688 160.734 19.2887 158.823 16.3816 158.823C13.2949 158.823 10.9268 161.256 10.9268 164.604C10.9268 167.266 12.707 169.177 15.614 169.177ZM27.5677 158.986L25.2323 164.016L25.02 158.986H21.8516L22.5049 169.014H25.3793L27.78 163.886L28.1067 169.014H30.9811L35.6683 158.986H32.4019L30.2298 164.016L29.9195 158.986H27.5677ZM36.2024 158.986L34.4386 169.014H41.9839L42.4575 166.303H38.0316L38.2112 165.241H42.2615L42.7188 162.628H38.6685L38.8482 161.681H43.2741L43.7477 158.986H36.2024ZM47.4135 166.14L48.7364 169.014H52.0681L50.4349 165.699C51.7741 165.078 52.7214 163.837 52.7214 162.089C52.7214 160.146 51.3822 158.986 49.4223 158.986H44.7351L42.9713 169.014H46.0907L46.5969 166.14H47.4135ZM47.3809 161.616H48.6548C49.406 161.616 49.6673 161.959 49.6673 162.465C49.6673 163.2 49.2264 163.657 48.3608 163.657H47.0216L47.3809 161.616ZM54.2886 158.986L52.5247 169.014H60.07L60.5437 166.303H56.1177L56.2974 165.241H60.3477L60.805 162.628H56.7547L56.9343 161.681H61.3602L61.8339 158.986H54.2886ZM64.6341 166.303L65.4507 161.681H66.2183C67.4269 161.681 68.0475 162.367 68.0475 163.526C68.0475 165.192 66.9696 166.303 65.4017 166.303H64.6341ZM61.0575 169.014H65.0914C68.6517 169.014 71.1995 166.662 71.1995 163.102C71.1995 160.57 69.697 158.986 66.8553 158.986H62.8213L61.0575 169.014ZM81.714 163.869C82.6286 163.559 83.4942 162.612 83.4942 161.322C83.4942 159.787 82.4326 158.986 80.6524 158.986H75.8835L74.1197 169.014H79.1662C81.4037 169.014 82.9715 167.773 82.9715 165.829C82.9715 164.898 82.4816 164.196 81.714 163.869ZM78.1863 162.824L78.415 161.534H79.7378C80.2278 161.534 80.4401 161.714 80.4401 162.057C80.4401 162.579 80.0645 162.824 79.5092 162.824H78.1863ZM77.7944 165.094H79.3295C79.8032 165.094 79.9991 165.323 79.9991 165.666C79.9991 166.14 79.6235 166.45 79.0846 166.45H77.5494L77.7944 165.094ZM88.2877 162.563L87.1281 158.986H83.8454L86.1972 165.715L85.6256 169.014H88.8103L89.3819 165.715L94.1671 158.986H90.7211L88.2877 162.563ZM104.119 165.601C103.368 166.025 102.535 166.221 101.8 166.221C100.624 166.221 99.7258 165.65 99.7258 164.392C99.7258 162.694 101.016 161.763 102.535 161.763C103.384 161.763 104.07 161.975 104.691 162.4L105.213 159.411C104.642 159.035 103.613 158.823 102.551 158.823C99.1868 158.823 96.5411 161.044 96.5411 164.735C96.5411 167.413 98.4519 169.177 101.13 169.177C102.159 169.177 102.894 168.965 103.596 168.589L104.119 165.601ZM109.844 166.417C108.864 166.417 108.211 165.682 108.211 164.506C108.211 162.645 109.158 161.583 110.35 161.583C111.33 161.583 111.983 162.318 111.983 163.494C111.983 165.356 111.036 166.417 109.844 166.417ZM109.713 169.177C112.8 169.177 115.168 166.744 115.168 163.396C115.168 160.734 113.388 158.823 110.481 158.823C107.394 158.823 105.026 161.256 105.026 164.604C105.026 167.266 106.806 169.177 109.713 169.177ZM115.045 169.014H122.525L122.998 166.303H118.687L119.977 158.986H116.809L115.045 169.014ZM128.377 166.417C127.397 166.417 126.743 165.682 126.743 164.506C126.743 162.645 127.691 161.583 128.883 161.583C129.863 161.583 130.516 162.318 130.516 163.494C130.516 165.356 129.569 166.417 128.377 166.417ZM128.246 169.177C131.333 169.177 133.701 166.744 133.701 163.396C133.701 160.734 131.921 158.823 129.014 158.823C125.927 158.823 123.559 161.256 123.559 164.604C123.559 167.266 125.339 169.177 128.246 169.177ZM138.02 166.14L139.343 169.014H142.674L141.041 165.699C142.38 165.078 143.328 163.837 143.328 162.089C143.328 160.146 141.988 158.986 140.029 158.986H135.341L133.578 169.014H136.697L137.203 166.14H138.02ZM137.987 161.616H139.261C140.012 161.616 140.274 161.959 140.274 162.465C140.274 163.2 139.833 163.657 138.967 163.657H137.628L137.987 161.616ZM151.55 166.417C150.571 166.417 149.917 165.682 149.917 164.506C149.917 162.645 150.865 161.583 152.057 161.583C153.037 161.583 153.69 162.318 153.69 163.494C153.69 165.356 152.743 166.417 151.55 166.417ZM151.42 169.177C154.507 169.177 156.875 166.744 156.875 163.396C156.875 160.734 155.094 158.823 152.187 158.823C149.101 158.823 146.733 161.256 146.733 164.604C146.733 167.266 148.513 169.177 151.42 169.177ZM159.871 169.014L160.443 165.764H164.362L164.819 163.118H160.9L161.145 161.714H165.456L165.946 158.986H158.515L156.752 169.014H159.871ZM176.352 165.601C175.601 166.025 174.768 166.221 174.033 166.221C172.857 166.221 171.959 165.65 171.959 164.392C171.959 162.694 173.249 161.763 174.768 161.763C175.617 161.763 176.303 161.975 176.924 162.4L177.446 159.411C176.875 159.035 175.846 158.823 174.784 158.823C171.42 158.823 168.774 161.044 168.774 164.735C168.774 167.413 170.685 169.177 173.363 169.177C174.392 169.177 175.127 168.965 175.829 168.589L176.352 165.601ZM184.821 158.986L184.184 162.596H180.999L181.636 158.986H178.468L176.704 169.014H179.872L180.525 165.29H183.71L183.057 169.014H186.225L187.989 158.986H184.821ZM192.454 158.986L186.771 169.014H189.907L190.707 167.56H194.267L194.512 169.014H197.648L195.753 158.986H192.454ZM193.434 162.694L193.826 164.996H192.144L193.434 162.694ZM209.195 158.986H206.141L205.275 163.82L202.744 158.986H199.951L198.187 169.014H201.241L202.156 163.837L204.997 169.014H207.431L209.195 158.986ZM213.749 169.177C215.137 169.177 216.231 168.851 217.358 168.099L218.223 163.249H214.288L213.847 165.731H215.039L214.957 166.172C214.728 166.287 214.255 166.352 213.961 166.352C212.899 166.352 212.246 165.682 212.246 164.425C212.246 162.792 213.161 161.763 214.875 161.763C216.019 161.763 217.113 162.155 217.799 162.71L218.321 159.721C217.636 159.28 216.443 158.823 214.875 158.823C211.429 158.823 209.061 161.256 209.061 164.604C209.061 167.266 210.842 169.177 213.749 169.177ZM219.935 158.986L218.171 169.014H225.716L226.19 166.303H221.764L221.944 165.241H225.994L226.451 162.628H222.401L222.581 161.681H227.007L227.48 158.986H219.935Z" fill="#8900FE"/>
</g>
<defs>
<clipPath id="clip0_339_26">
<rect width="228" height="172.654" fill="white" transform="translate(0 0.970978)"/>
</clipPath>
</defs>
</svg>
