<svg width="1877" height="744" viewBox="0 0 1877 744" fill="none" xmlns="http://www.w3.org/2000/svg">
<path d="M953.964 521.593L918.133 744H992.61L1029.46 521.593H953.964Z" fill="#8900FE"/>
<path d="M1107.01 521.593L1071.18 744H1145.66L1182.51 521.593H1107.01Z" fill="#8900FE"/>
<path d="M1256.98 521.593L1221.15 744H1295.63L1332.48 521.593H1256.98Z" fill="#8900FE"/>
<path d="M993.633 282.039L969.319 428.689H1044.56L1067.85 282.039H993.633Z" fill="#8900FE"/>
<path d="M1296.65 282.039L1272.34 428.689H1347.58L1370.87 282.039H1296.65Z" fill="#8900FE"/>
<path d="M1113.67 0H1038.93L1008.22 188.367H1082.96L1113.67 0Z" fill="#8900FE"/>
<path d="M1267.23 0H1192.49L1161.78 188.367H1236.52L1267.23 0Z" fill="#8900FE"/>
<path d="M1417.2 0H1342.47L1311.75 188.367H1386.49L1417.2 0Z" fill="#8900FE"/>
<path d="M494.897 521.593L459.066 744H533.543L570.398 521.593H494.897Z" fill="#8900FE"/>
<path d="M647.946 521.593L612.115 744H686.592L723.447 521.593H647.946Z" fill="#8900FE"/>
<path d="M797.918 521.593L762.087 744H836.564L873.418 521.593H797.918Z" fill="#8900FE"/>
<path d="M534.566 282.039L510.252 428.689H585.497L608.787 282.039H534.566Z" fill="#8900FE"/>
<path d="M837.587 282.039L813.273 428.689H888.518L911.808 282.039H837.587Z" fill="#8900FE"/>
<path d="M654.601 0H579.868L549.156 188.367H623.889L654.601 0Z" fill="#8900FE"/>
<path d="M808.161 0H733.429L702.717 188.367H777.449L808.161 0Z" fill="#8900FE"/>
<path d="M958.133 0H883.4L852.688 188.367H927.421L958.133 0Z" fill="#8900FE"/>
<path d="M35.8308 521.593L0 744H74.4768L111.331 521.593H35.8308Z" fill="#8900FE"/>
<path d="M188.88 521.593L153.049 744H227.526L264.38 521.593H188.88Z" fill="#8900FE"/>
<path d="M338.851 521.593L303.021 744H377.497L414.352 521.593H338.851Z" fill="#8900FE"/>
<path d="M75.4993 282.039L51.1856 428.689H126.43L149.72 282.039H75.4993Z" fill="#8900FE"/>
<path d="M378.521 282.039L354.207 428.689H429.452L452.742 282.039H378.521Z" fill="#8900FE"/>
<path d="M195.535 0H120.802L90.0899 188.367H164.823L195.535 0Z" fill="#8900FE"/>
<path d="M349.095 0H274.363L243.65 188.367H318.383L349.095 0Z" fill="#8900FE"/>
<path d="M499.066 0H424.333L393.621 188.367H468.354L499.066 0Z" fill="#8900FE"/>
<path d="M1413.03 521.593L1377.2 744H1451.68L1488.53 521.593H1413.03Z" fill="#8900FE"/>
<path d="M1566.08 521.593L1530.25 744H1604.72L1641.58 521.593H1566.08Z" fill="#8900FE"/>
<path d="M1716.05 521.593L1680.22 744H1754.7L1791.55 521.593H1716.05Z" fill="#8900FE"/>
<path d="M1452.7 282.039L1428.39 428.689H1503.63L1526.92 282.039H1452.7Z" fill="#8900FE"/>
<path d="M1755.72 282.039L1731.41 428.689H1806.65L1829.94 282.039H1755.72Z" fill="#8900FE"/>
<path d="M1572.73 0H1498L1467.29 188.367H1542.02L1572.73 0Z" fill="#8900FE"/>
<path d="M1726.29 0H1651.56L1620.85 188.367H1695.58L1726.29 0Z" fill="#8900FE"/>
<path d="M1876.27 0H1801.53L1770.82 188.367H1845.55L1876.27 0Z" fill="#8900FE"/>
</svg>
